<svg width="98" height="18" viewBox="0 0 98 18" fill="none" xmlns="http://www.w3.org/2000/svg">
<path d="M14.2019 15.3664C13.4611 16.0036 12.6313 16.4925 11.7127 16.8333C10.794 17.1741 9.84207 17.3445 8.85675 17.3445C8.10109 17.3445 7.37136 17.2445 6.66756 17.0445C5.97117 16.8518 5.31553 16.5777 4.70063 16.2221C4.09314 15.8591 3.53751 15.4257 3.03374 14.9219C2.52997 14.4182 2.09658 13.8625 1.73357 13.2551C1.37796 12.6402 1.10015 11.9845 0.900121 11.2881C0.707503 10.5843 0.611193 9.85459 0.611193 9.09894C0.611193 8.34328 0.707503 7.61355 0.900121 6.90975C1.10015 6.20595 1.37796 5.55031 1.73357 4.94282C2.09658 4.32792 2.52997 3.76859 3.03374 3.26482C3.53751 2.76105 4.09314 2.33136 4.70063 1.97576C5.31553 1.61274 5.97117 1.33493 6.66756 1.14231C7.37136 0.942283 8.10109 0.842269 8.85675 0.842269C9.84207 0.842269 10.794 1.01266 11.7127 1.35345C12.6313 1.68683 13.4611 2.17578 14.2019 2.82031L12.5128 5.59847C12.0461 5.09469 11.4941 4.70946 10.857 4.44275C10.2199 4.16864 9.55314 4.03159 8.85675 4.03159C8.15295 4.03159 7.4936 4.16494 6.8787 4.43164C6.26381 4.69834 5.7267 5.06136 5.26738 5.52068C4.80805 5.97259 4.44504 6.5097 4.17834 7.132C3.91164 7.7469 3.77829 8.40255 3.77829 9.09894C3.77829 9.79533 3.91164 10.451 4.17834 11.0659C4.44504 11.6734 4.80805 12.2068 5.26738 12.6661C5.7267 13.1254 6.26381 13.4884 6.8787 13.7551C7.4936 14.0218 8.15295 14.1552 8.85675 14.1552C9.55314 14.1552 10.2199 14.0218 10.857 13.7551C11.4941 13.481 12.0461 13.0921 12.5128 12.5883L14.2019 15.3664ZM20.1574 17H16.9681V1.06452H20.1574V7.44316H26.5249V1.06452H29.7142V17H26.5249V10.6325H20.1574V17ZM36.781 4.25384V10.6325H39.9703C40.4074 10.6325 40.8185 10.551 41.2038 10.388C41.589 10.2176 41.9261 9.98794 42.215 9.69902C42.5039 9.41009 42.7299 9.07301 42.8929 8.68777C43.0633 8.29512 43.1485 7.88025 43.1485 7.44316C43.1485 7.00606 43.0633 6.5949 42.8929 6.20966C42.7299 5.81701 42.5039 5.47623 42.215 5.1873C41.9261 4.89837 41.589 4.67241 41.2038 4.50943C40.8185 4.33904 40.4074 4.25384 39.9703 4.25384H36.781ZM36.781 17H33.5916V1.06452H39.9703C40.5555 1.06452 41.1186 1.14231 41.6594 1.29789C42.2002 1.44605 42.704 1.6609 43.1707 1.94242C43.6448 2.21653 44.0745 2.54991 44.4598 2.94255C44.8524 3.32779 45.1858 3.75748 45.4599 4.23161C45.7414 4.70575 45.9563 5.21323 46.1044 5.75404C46.26 6.29486 46.3378 6.85789 46.3378 7.44316C46.3378 7.99138 46.2674 8.52478 46.1267 9.04337C45.9933 9.56196 45.797 10.0546 45.5377 10.5214C45.2858 10.9881 44.9746 11.4178 44.6042 11.8104C44.2338 12.2031 43.8189 12.5438 43.3596 12.8328L45.1265 17H41.7372L40.3481 13.7885L36.781 13.8107V17ZM64.9616 9.09894C64.9616 9.85459 64.8616 10.5843 64.6616 11.2881C64.469 11.9845 64.1949 12.6402 63.8393 13.2551C63.4837 13.8625 63.054 14.4182 62.5502 14.9219C62.0464 15.4257 61.4908 15.8591 60.8833 16.2221C60.2758 16.5777 59.6202 16.8518 58.9164 17.0445C58.2126 17.2445 57.4829 17.3445 56.7272 17.3445C55.9715 17.3445 55.2418 17.2445 54.538 17.0445C53.8416 16.8518 53.186 16.5777 52.5711 16.2221C51.9636 15.8591 51.408 15.4257 50.9042 14.9219C50.4004 14.4182 49.967 13.8625 49.604 13.2551C49.2484 12.6402 48.9706 11.9845 48.7706 11.2881C48.5779 10.5843 48.4816 9.85459 48.4816 9.09894C48.4816 8.34328 48.5779 7.61355 48.7706 6.90975C48.9706 6.20595 49.2484 5.55031 49.604 4.94282C49.967 4.33533 50.4004 3.7797 50.9042 3.27593C51.408 2.77216 51.9636 2.34247 52.5711 1.98687C53.186 1.63126 53.8416 1.35715 54.538 1.16453C55.2418 0.964508 55.9715 0.864495 56.7272 0.864495C57.4829 0.864495 58.2126 0.964508 58.9164 1.16453C59.6202 1.35715 60.2758 1.63126 60.8833 1.98687C61.4908 2.34247 62.0464 2.77216 62.5502 3.27593C63.054 3.7797 63.4837 4.33533 63.8393 4.94282C64.1949 5.55031 64.469 6.20595 64.6616 6.90975C64.8616 7.61355 64.9616 8.34328 64.9616 9.09894ZM61.7945 9.09894C61.7945 8.40255 61.6612 7.7469 61.3945 7.132C61.1278 6.5097 60.7648 5.97259 60.3055 5.52068C59.8535 5.06136 59.3164 4.69834 58.6941 4.43164C58.0792 4.16494 57.4236 4.03159 56.7272 4.03159C56.0234 4.03159 55.364 4.16494 54.7491 4.43164C54.1343 4.69834 53.5971 5.06136 53.1378 5.52068C52.6785 5.97259 52.3155 6.5097 52.0488 7.132C51.7821 7.7469 51.6487 8.40255 51.6487 9.09894C51.6487 9.79533 51.7821 10.451 52.0488 11.0659C52.3155 11.6734 52.6785 12.2068 53.1378 12.6661C53.5971 13.1254 54.1343 13.4884 54.7491 13.7551C55.364 14.0218 56.0234 14.1552 56.7272 14.1552C57.4236 14.1552 58.0792 14.0218 58.6941 13.7551C59.3164 13.4884 59.8535 13.1254 60.3055 12.6661C60.7648 12.2068 61.1278 11.6734 61.3945 11.0659C61.6612 10.451 61.7945 9.79533 61.7945 9.09894ZM80.7184 17H77.3069L71.1616 6.5097V17H67.9723V1.06452H71.3838L77.5291 11.5659V1.06452H80.7184V17ZM93.9749 10.6325V7.44316C93.9749 7.00606 93.8897 6.5949 93.7193 6.20966C93.5563 5.81701 93.3303 5.47623 93.0414 5.1873C92.7525 4.89837 92.4117 4.67241 92.0191 4.50943C91.6338 4.33904 91.2227 4.25384 90.7856 4.25384C90.3485 4.25384 89.9336 4.33904 89.5409 4.50943C89.1557 4.67241 88.8186 4.89837 88.5297 5.1873C88.2408 5.47623 88.0111 5.81701 87.8407 6.20966C87.6777 6.5949 87.5962 7.00606 87.5962 7.44316V10.6325H93.9749ZM97.1642 17H93.9749V13.8107H87.5962V17H84.418V7.44316C84.418 6.56156 84.5847 5.73552 84.9181 4.96505C85.2515 4.18716 85.7034 3.50929 86.2738 2.93144C86.8517 2.35358 87.5259 1.89797 88.2963 1.56459C89.0742 1.23121 89.904 1.06452 90.7856 1.06452C91.6672 1.06452 92.4932 1.23121 93.2637 1.56459C94.0416 1.89797 94.7194 2.35358 95.2973 2.93144C95.8751 3.50929 96.3307 4.18716 96.6641 4.96505C96.9975 5.73552 97.1642 6.56156 97.1642 7.44316V17Z" fill="#0D0D0D"/>
</svg>
