<svg width="50" height="50" viewBox="0 0 50 50" fill="none" xmlns="http://www.w3.org/2000/svg">
<path d="M23.3333 17.4479L30.625 4.94791C33.7847 5.78125 36.5889 7.30903 39.0375 9.53125C41.4861 11.7535 43.2653 14.3924 44.375 17.4479H23.3333ZM17.5521 22.6562L10.4166 10.1562C12.2916 8.31597 14.4708 6.85764 16.9542 5.78125C19.4375 4.70486 22.1194 4.16666 25 4.16666C25.4514 4.16666 25.9722 4.19305 26.5625 4.24583C27.1528 4.29861 27.691 4.35903 28.1771 4.42708L17.5521 22.6562ZM4.84373 30.2083C4.6354 29.375 4.47012 28.5243 4.3479 27.6562C4.22568 26.7882 4.16526 25.9028 4.16665 25C4.16665 22.5347 4.56596 20.2083 5.36457 18.0208C6.16318 15.8333 7.29165 13.8368 8.74998 12.0312L19.2708 30.2083H4.84373ZM19.4271 45.0521C16.2673 44.2188 13.4548 42.691 10.9896 40.4688C8.52429 38.2465 6.73609 35.6076 5.62498 32.5521H26.6146L19.4271 45.0521ZM25 45.8333C24.4792 45.8333 23.9493 45.7986 23.4104 45.7292C22.8715 45.6597 22.3597 45.5903 21.875 45.5208L32.4479 27.3438L39.5833 39.8438C37.7083 41.684 35.5298 43.1424 33.0479 44.2188C30.566 45.2951 27.8833 45.8333 25 45.8333ZM41.25 37.9688L30.7292 19.7917H45.1562C45.3646 20.625 45.5298 21.4757 45.6521 22.3438C45.7743 23.2118 45.8347 24.0972 45.8333 25C45.8333 27.4306 45.4083 29.7569 44.5583 31.9792C43.7083 34.2014 42.6055 36.1979 41.25 37.9688Z" fill="#27C799"/>
</svg>
