<svg width="213" height="327" viewBox="0 0 213 327" fill="none" xmlns="http://www.w3.org/2000/svg">
<path fill-rule="evenodd" clip-rule="evenodd" d="M192.499 238.699L172.654 251.475C172.499 251.585 172.39 251.748 172.351 251.934C172.311 252.119 172.343 252.312 172.44 252.475L180.158 266.432L211.905 245.992C208.89 240.014 203.693 240.957 197.28 241.665C194.513 241.497 192.499 238.699 192.499 238.699Z" fill="#27C799"/>
<path d="M192.499 238.699L172.654 251.475C172.499 251.585 172.39 251.748 172.351 251.934C172.311 252.119 172.343 252.312 172.44 252.475L180.158 266.432L211.905 245.992C208.89 240.014 203.693 240.957 197.28 241.665C194.513 241.497 192.499 238.699 192.499 238.699Z" stroke="black" stroke-width="0.57" stroke-linecap="round" stroke-linejoin="round"/>
<path d="M210.527 243.869L178.382 264.554C178.047 264.769 177.951 265.214 178.166 265.548L180.012 268.41C180.228 268.744 180.673 268.841 181.008 268.625L213.153 247.941C213.488 247.725 213.584 247.28 213.369 246.946L211.523 244.084C211.307 243.75 210.862 243.654 210.527 243.869Z" fill="#27C799"/>
<path d="M210.527 243.869L178.382 264.554C178.047 264.769 177.951 265.214 178.166 265.548L180.012 268.41C180.228 268.744 180.673 268.841 181.008 268.625L213.153 247.941C213.488 247.725 213.584 247.28 213.369 246.946L211.523 244.084C211.307 243.75 210.862 243.654 210.527 243.869Z" stroke="black" stroke-width="0.57" stroke-linecap="round" stroke-linejoin="round"/>
<path fill-rule="evenodd" clip-rule="evenodd" d="M192.758 238.732L194.243 240.137C188.452 242.669 182.817 245.544 177.368 248.745L192.758 238.732Z" fill="black"/>
<path d="M192.758 238.732L194.243 240.137C188.452 242.669 182.817 245.544 177.368 248.745L192.758 238.732Z" stroke="black" stroke-width="0.57" stroke-miterlimit="22.93" stroke-linecap="round"/>
<path fill-rule="evenodd" clip-rule="evenodd" d="M106.436 247.52L83.25 242.958C83.0627 242.927 82.8709 242.97 82.7139 243.076C82.557 243.183 82.4469 243.346 82.4062 243.531L78.2662 258.926L115.324 266.23C117.304 259.836 112.837 258.667 107.741 254.745C105.874 252.689 106.436 247.52 106.436 247.52Z" fill="#27C799"/>
<path d="M106.436 247.52L83.25 242.958C83.0627 242.927 82.8709 242.97 82.7139 243.076C82.557 243.183 82.4469 243.346 82.4062 243.531L78.2662 258.926L115.324 266.23C117.304 259.836 112.837 258.667 107.741 254.745C105.874 252.689 106.436 247.52 106.436 247.52Z" stroke="black" stroke-width="0.57" stroke-linecap="round" stroke-linejoin="round"/>
<path fill-rule="evenodd" clip-rule="evenodd" d="M115.515 263.735L103.624 263.6L78.3224 256.341C78.23 256.321 78.1346 256.32 78.0418 256.338C77.949 256.356 77.8607 256.392 77.7821 256.444C77.7035 256.497 77.6362 256.564 77.5841 256.643C77.5319 256.722 77.4961 256.81 77.4787 256.903L76.8149 260.274C76.7874 260.461 76.8311 260.651 76.9373 260.807C77.0436 260.963 77.2047 261.074 77.3887 261.117L103.106 268.455L114.896 268.511C115.29 268.511 115.706 268.342 115.74 267.949L116.089 264.578C116.122 264.185 115.875 263.735 115.515 263.735Z" fill="#27C799"/>
<path d="M115.515 263.735L103.624 263.6L78.3224 256.341C78.23 256.321 78.1346 256.32 78.0418 256.338C77.949 256.356 77.8607 256.392 77.7821 256.444C77.7035 256.497 77.6362 256.564 77.5841 256.643C77.5319 256.722 77.4961 256.81 77.4787 256.903L76.8149 260.274C76.7874 260.461 76.8311 260.651 76.9373 260.807C77.0436 260.963 77.2047 261.074 77.3887 261.117L103.106 268.455L114.896 268.511C115.29 268.511 115.706 268.342 115.74 267.949L116.089 264.578C116.122 264.185 115.875 263.735 115.515 263.735Z" stroke="black" stroke-width="0.57" stroke-linecap="round" stroke-linejoin="round"/>
<path fill-rule="evenodd" clip-rule="evenodd" d="M106.301 247.666L106.391 249.7C100.45 247.511 94.3874 245.665 88.2338 244.171L106.301 247.666Z" fill="black"/>
<path d="M106.301 247.666L106.391 249.7C100.45 247.511 94.3874 245.665 88.2338 244.171L106.301 247.666Z" stroke="black" stroke-width="0.57" stroke-miterlimit="22.93" stroke-linecap="round"/>
<path fill-rule="evenodd" clip-rule="evenodd" d="M144.607 107.146C150.716 113.349 155.216 120.507 165.982 127.946C169.447 130.339 171.709 132.216 172.429 132.531C172.429 132.531 172.327 117.54 172.327 117.046C172.327 115.225 166.387 113.607 169.425 99.0664C169.678 97.5198 169.829 95.9582 169.875 94.3917C170.167 90.425 173.374 89.7621 174.847 92.5938C175.556 93.9423 175.545 96.7515 175.399 98.3472C175.264 99.7294 176.614 98.8079 181.665 99.0327C182.196 99.01 182.723 99.1414 183.181 99.411C183.639 99.6806 184.01 100.077 184.248 100.552C184.486 101.027 184.581 101.561 184.522 102.089C184.463 102.617 184.252 103.116 183.915 103.528C183.791 103.696 187.29 104.831 185.04 108.337C187.875 111.483 184.162 113.068 184.072 113.618C183.386 117.877 186.39 139.284 184.691 143.655C180.72 153.859 168.356 147.566 151.807 135.059C146.059 130.721 142.807 117.63 144.472 110.618C144.562 110.393 144.607 107.135 144.607 107.146Z" fill="#27C799"/>
<path d="M144.607 107.146C150.716 113.349 155.216 120.507 165.982 127.946C169.447 130.339 171.709 132.216 172.429 132.531C172.429 132.531 172.327 117.54 172.327 117.046C172.327 115.225 166.387 113.607 169.425 99.0664C169.678 97.5198 169.829 95.9582 169.875 94.3917C170.167 90.425 173.374 89.7621 174.847 92.5938C175.556 93.9423 175.545 96.7515 175.399 98.3472C175.264 99.7294 176.614 98.8079 181.665 99.0327C182.196 99.01 182.723 99.1414 183.181 99.411C183.639 99.6806 184.01 100.077 184.248 100.552C184.486 101.027 184.581 101.561 184.522 102.089C184.463 102.617 184.252 103.116 183.915 103.528C183.791 103.696 187.29 104.831 185.04 108.337C187.875 111.483 184.162 113.068 184.072 113.618C183.386 117.877 186.39 139.284 184.691 143.655C180.72 153.859 168.356 147.566 151.807 135.059C146.059 130.721 142.807 117.63 144.472 110.618C144.562 110.393 144.607 107.135 144.607 107.146Z" stroke="black" stroke-width="0.57" stroke-miterlimit="22.93" stroke-linecap="round"/>
<path fill-rule="evenodd" clip-rule="evenodd" d="M172.44 131.733C172.44 132.238 172.44 136.43 172.44 137.677C172.374 135.85 171.922 134.058 171.113 132.418C171.113 132.418 170.325 131.025 170.505 131.182C171.056 131.559 171.644 131.879 172.26 132.137C172.283 132.07 172.395 131.744 172.44 131.733Z" fill="black"/>
<path d="M172.44 131.733C172.44 132.238 172.44 136.43 172.44 137.677C172.374 135.85 171.922 134.058 171.113 132.418C171.113 132.418 170.325 131.025 170.505 131.182C171.056 131.559 171.644 131.879 172.26 132.137C172.283 132.07 172.395 131.744 172.44 131.733Z" stroke="black" stroke-width="0.57" stroke-linecap="round" stroke-linejoin="round"/>
<path fill-rule="evenodd" clip-rule="evenodd" d="M144.596 107.876L148.387 111.416C150.637 121.844 154.012 127.957 155.767 138.172C153.517 136.306 151.886 134.8 149.636 132.89L144.596 107.876Z" fill="black"/>
<path d="M144.596 107.876L148.387 111.416C150.637 121.844 154.012 127.957 155.767 138.172C153.517 136.306 151.886 134.8 149.636 132.89L144.596 107.876Z" stroke="black" stroke-width="0.57" stroke-miterlimit="22.93" stroke-linecap="round"/>
<path fill-rule="evenodd" clip-rule="evenodd" d="M144.202 73.9627C144.202 83.5704 144.202 83.4131 144.202 93.0658C144.202 118.473 155.767 123.833 156.487 149.959C156.622 154.735 152.347 154.139 151.616 160.556C146.216 161.871 131.76 156.6 126.36 157.904C120.982 156.6 106.762 167.264 101.374 165.961C91.9125 124.451 111.881 116.372 111.847 94.7513V74.0076C111.814 52.6683 144.18 53.41 144.202 73.9627Z" fill="#27C799"/>
<path d="M144.202 73.9627C144.202 83.5704 144.202 83.4131 144.202 93.0658C144.202 118.473 155.767 123.833 156.487 149.959C156.622 154.735 152.347 154.139 151.616 160.556C146.216 161.871 131.76 156.6 126.36 157.904C120.982 156.6 106.762 167.264 101.374 165.961C91.9125 124.451 111.881 116.372 111.847 94.7513V74.0076C111.814 52.6683 144.18 53.41 144.202 73.9627Z" stroke="black" stroke-width="0.57" stroke-linecap="round" stroke-linejoin="round"/>
<path fill-rule="evenodd" clip-rule="evenodd" d="M144.203 73.9627C144.203 83.5704 144.203 83.4131 144.203 93.0658C144.194 95.8931 144.352 98.7185 144.675 101.527H111.218C111.655 99.3065 111.878 97.0486 111.881 94.7851V74.0413C111.814 52.6683 144.18 53.41 144.203 73.9627Z" fill="#27C799"/>
<path d="M144.203 73.9627C144.203 83.5704 144.203 83.4131 144.203 93.0658C144.194 95.8931 144.352 98.7185 144.675 101.527H111.218C111.655 99.3065 111.878 97.0486 111.881 94.7851V74.0413C111.814 52.6683 144.18 53.41 144.203 73.9627Z" stroke="black" stroke-width="0.57" stroke-linecap="round" stroke-linejoin="round"/>
<path fill-rule="evenodd" clip-rule="evenodd" d="M111.926 72.2659C113.524 53.2976 142.414 53.9157 144.124 72.2659H111.926Z" fill="#27C799"/>
<path d="M111.926 72.2659C113.524 53.2976 142.414 53.9157 144.124 72.2659H111.926Z" stroke="black" stroke-width="0.57" stroke-linecap="round" stroke-linejoin="round"/>
<path fill-rule="evenodd" clip-rule="evenodd" d="M99.1912 149.218C99.1912 149.454 99.1912 149.678 99.1912 149.914C98.9887 160.781 101.587 157.612 101.554 167.557C101.272 172.051 80.415 242.014 80.4825 243.126C83.8575 243.126 108.349 247.767 108.349 247.767C109.249 241.205 127.474 183.648 127.901 182.918L172.046 251.464C175.421 250.824 192.094 238.98 192.814 238.71C192.814 238.71 156.139 175.782 155.295 173.535C155.182 165.927 157.05 156.275 156.701 149.15L99.1912 149.218Z" fill="#27C799"/>
<path d="M99.1912 149.218C99.1912 149.454 99.1912 149.678 99.1912 149.914C98.9887 160.781 101.587 157.612 101.554 167.557C101.272 172.051 80.415 242.014 80.4825 243.126C83.8575 243.126 108.349 247.767 108.349 247.767C109.249 241.205 127.474 183.648 127.901 182.918L172.046 251.464C175.421 250.824 192.094 238.98 192.814 238.71C192.814 238.71 156.139 175.782 155.295 173.535C155.182 165.927 157.05 156.275 156.701 149.15L99.1912 149.218Z" stroke="black" stroke-width="0.57" stroke-linecap="round" stroke-linejoin="round"/>
<path fill-rule="evenodd" clip-rule="evenodd" d="M142.774 85.1548C142.402 85.1548 142.039 85.0448 141.73 84.8386C141.421 84.6324 141.18 84.3393 141.038 83.9964C140.896 83.6535 140.859 83.2762 140.931 82.9121C141.004 82.5481 141.183 82.2137 141.445 81.9513C141.708 81.6888 142.043 81.5101 142.407 81.4377C142.772 81.3653 143.149 81.4025 143.493 81.5445C143.836 81.6865 144.129 81.9271 144.336 82.2357C144.542 82.5443 144.653 82.9071 144.653 83.2782C144.653 83.7759 144.455 84.2533 144.102 84.6052C143.75 84.9571 143.272 85.1548 142.774 85.1548Z" fill="#FEFEFE"/>
<path d="M142.774 85.1548C142.402 85.1548 142.039 85.0448 141.73 84.8386C141.421 84.6324 141.18 84.3393 141.038 83.9964C140.896 83.6535 140.859 83.2762 140.931 82.9121C141.004 82.5481 141.183 82.2137 141.445 81.9513C141.708 81.6888 142.043 81.5101 142.407 81.4377C142.772 81.3653 143.149 81.4025 143.493 81.5445C143.836 81.6865 144.129 81.9271 144.336 82.2357C144.542 82.5443 144.653 82.9071 144.653 83.2782C144.653 83.7759 144.455 84.2533 144.102 84.6052C143.75 84.9571 143.272 85.1548 142.774 85.1548Z" stroke="black" stroke-width="0.57" stroke-linecap="round" stroke-linejoin="round"/>
<path fill-rule="evenodd" clip-rule="evenodd" d="M126.99 81.4016C127.362 81.4016 127.725 81.5117 128.034 81.7179C128.343 81.9241 128.584 82.2172 128.726 82.5601C128.868 82.903 128.905 83.2803 128.833 83.6443C128.76 84.0084 128.581 84.3427 128.318 84.6052C128.056 84.8676 127.721 85.0464 127.356 85.1188C126.992 85.1912 126.614 85.154 126.271 85.012C125.928 84.87 125.634 84.6294 125.428 84.3208C125.221 84.0122 125.111 83.6494 125.111 83.2782C125.111 82.7805 125.309 82.3032 125.661 81.9513C126.014 81.5994 126.492 81.4016 126.99 81.4016Z" fill="#FEFEFE"/>
<path d="M126.99 81.4016C127.362 81.4016 127.725 81.5117 128.034 81.7179C128.343 81.9241 128.584 82.2172 128.726 82.5601C128.868 82.903 128.905 83.2803 128.833 83.6443C128.76 84.0084 128.581 84.3427 128.318 84.6052C128.056 84.8676 127.721 85.0464 127.356 85.1188C126.992 85.1912 126.614 85.154 126.271 85.012C125.928 84.87 125.634 84.6294 125.428 84.3208C125.221 84.0122 125.111 83.6494 125.111 83.2782C125.111 82.7805 125.309 82.3032 125.661 81.9513C126.014 81.5994 126.492 81.4016 126.99 81.4016Z" stroke="black" stroke-width="0.57" stroke-linecap="round" stroke-linejoin="round"/>
<path d="M129.375 177.827C129.375 173.231 136.935 173.67 139.691 167.13" stroke="black" stroke-width="0.57" stroke-linecap="round" stroke-linejoin="round"/>
<path d="M142.065 75.9966C142.806 75.8938 143.561 76.011 144.236 76.3337" stroke="black" stroke-width="0.57" stroke-miterlimit="22.93" stroke-linecap="round"/>
<path d="M127.789 75.9966C127.048 75.8917 126.292 76.0091 125.618 76.3337" stroke="black" stroke-width="0.57" stroke-miterlimit="22.93" stroke-linecap="round"/>
<path fill-rule="evenodd" clip-rule="evenodd" d="M112.151 98.5607H144.214C144.818 98.5607 145.397 98.8005 145.825 99.2272C146.252 99.654 146.492 100.233 146.492 100.836C146.492 101.44 146.252 102.019 145.825 102.445C145.397 102.872 144.818 103.112 144.214 103.112H112.151C111.547 103.112 110.968 102.872 110.54 102.445C110.113 102.019 109.873 101.44 109.873 100.836C109.873 100.233 110.113 99.654 110.54 99.2272C110.968 98.8005 111.547 98.5607 112.151 98.5607Z" fill="#27C799"/>
<path d="M112.151 98.5607H144.214C144.818 98.5607 145.397 98.8005 145.825 99.2272C146.252 99.654 146.492 100.233 146.492 100.836C146.492 101.44 146.252 102.019 145.825 102.445C145.397 102.872 144.818 103.112 144.214 103.112H112.151C111.547 103.112 110.968 102.872 110.54 102.445C110.113 102.019 109.873 101.44 109.873 100.836C109.873 100.233 110.113 99.654 110.54 99.2272C110.968 98.8005 111.547 98.5607 112.151 98.5607Z" stroke="black" stroke-width="0.57" stroke-miterlimit="22.93" stroke-linecap="round"/>
<path d="M111.848 72.0973H161.179" stroke="black" stroke-width="0.57" stroke-miterlimit="22.93" stroke-linecap="round"/>
<path fill-rule="evenodd" clip-rule="evenodd" d="M144.664 102.999L145.148 104.988C138.898 103.979 132.595 103.341 126.27 103.078L144.664 102.999Z" fill="black"/>
<path d="M144.664 102.999L145.148 104.988C138.898 103.979 132.595 103.341 126.27 103.078L144.664 102.999Z" stroke="black" stroke-width="0.57" stroke-miterlimit="22.93" stroke-linecap="round"/>
<path fill-rule="evenodd" clip-rule="evenodd" d="M143.707 72.0186L144.191 74.0076C137.942 72.9985 131.639 72.3606 125.314 72.0973L143.707 72.0186Z" fill="black"/>
<path d="M143.707 72.0186L144.191 74.0076C137.942 72.9985 131.639 72.3606 125.314 72.0973L143.707 72.0186Z" stroke="black" stroke-width="0.57" stroke-miterlimit="22.93" stroke-linecap="round"/>
<path fill-rule="evenodd" clip-rule="evenodd" d="M142.583 82.9524C142.64 82.9523 142.696 82.9744 142.738 83.0142C142.78 83.0539 142.805 83.1082 142.808 83.1659C142.808 83.1949 142.802 83.2236 142.79 83.2503C142.779 83.2769 142.762 83.301 142.741 83.321C142.72 83.3409 142.695 83.3564 142.668 83.3665C142.641 83.3765 142.612 83.3809 142.583 83.3794C142.526 83.3794 142.471 83.3569 142.431 83.3168C142.391 83.2768 142.369 83.2225 142.369 83.1659C142.372 83.1101 142.395 83.0574 142.434 83.0179C142.474 82.9785 142.527 82.9551 142.583 82.9524Z" fill="black"/>
<path d="M142.583 82.9524C142.64 82.9523 142.696 82.9744 142.738 83.0142C142.78 83.0539 142.805 83.1082 142.808 83.1659C142.808 83.1949 142.802 83.2236 142.79 83.2503C142.779 83.2769 142.762 83.301 142.741 83.321C142.72 83.3409 142.695 83.3564 142.668 83.3665C142.641 83.3765 142.612 83.3809 142.583 83.3794C142.526 83.3794 142.471 83.3569 142.431 83.3168C142.391 83.2768 142.369 83.2225 142.369 83.1659C142.372 83.1101 142.395 83.0574 142.434 83.0179C142.474 82.9785 142.527 82.9551 142.583 82.9524Z" stroke="black" stroke-width="0.57" stroke-linecap="round" stroke-linejoin="round"/>
<path fill-rule="evenodd" clip-rule="evenodd" d="M127.024 83.4019C126.967 83.4019 126.913 83.3794 126.873 83.3393C126.833 83.2993 126.81 83.245 126.81 83.1883C126.81 83.1317 126.833 83.0774 126.873 83.0374C126.913 82.9973 126.967 82.9748 127.024 82.9748C127.081 82.9748 127.135 82.9973 127.175 83.0374C127.215 83.0774 127.238 83.1317 127.238 83.1883C127.238 83.245 127.215 83.2993 127.175 83.3393C127.135 83.3794 127.081 83.4019 127.024 83.4019Z" fill="black"/>
<path d="M127.024 83.4019C126.967 83.4019 126.913 83.3794 126.873 83.3393C126.833 83.2993 126.81 83.245 126.81 83.1883C126.81 83.1317 126.833 83.0774 126.873 83.0374C126.913 82.9973 126.967 82.9748 127.024 82.9748C127.081 82.9748 127.135 82.9973 127.175 83.0374C127.215 83.0774 127.238 83.1317 127.238 83.1883C127.238 83.245 127.215 83.2993 127.175 83.3393C127.135 83.3794 127.081 83.4019 127.024 83.4019Z" stroke="black" stroke-width="0.57" stroke-linecap="round" stroke-linejoin="round"/>
<path d="M127.35 183.94L129.375 177.445" stroke="black" stroke-width="0.57" stroke-miterlimit="22.93" stroke-linecap="round"/>
<path fill-rule="evenodd" clip-rule="evenodd" d="M99.0787 142.037L115.155 125.44C114.851 126.226 110.272 131.16 105.547 137.554C105.367 137.789 98.5725 149.161 98.8762 149.218C99.18 149.274 99.0787 142.037 99.0787 142.037Z" fill="black"/>
<path d="M99.0787 142.037L115.155 125.44C114.851 126.226 110.272 131.16 105.547 137.554C105.367 137.789 98.5725 149.161 98.8762 149.218C99.18 149.274 99.0787 142.037 99.0787 142.037Z" stroke="black" stroke-width="0.57" stroke-miterlimit="22.93" stroke-linecap="round"/>
<path fill-rule="evenodd" clip-rule="evenodd" d="M74.0925 168.692C73.5187 168.141 72.6412 174.883 71.7187 175.715C69.9412 177.288 68.0287 173.816 67.9612 172.613C67.9612 172.018 62.64 173.007 66.7687 164.882C68.085 162.309 75.0375 153.847 77.1188 150.532C86.625 135.295 100.485 116.372 111.274 109.393C112.781 108.427 116.122 110.798 116.831 111.427C117.956 112.439 118.687 113.877 117.484 119.035C116.224 124.474 120.994 123.046 115.504 123.417C104.625 135.969 99.18 142.003 90.4613 156.275C88.5938 159.331 87.0188 161.32 86.5238 163.41C86.0963 165.174 86.715 166.916 85.9163 170.152C85.3875 172.4 79.9875 175.557 78.8737 174.085C78.1537 173.119 78.3113 172.287 79.0875 168.411C79.2788 167.444 79.8075 163.522 79.38 162.938C78.4575 161.477 74.9475 166.557 74.0925 168.647" fill="#27C799"/>
<path d="M74.6775 167.545C73.4827 169.612 72.7462 171.912 72.5175 174.288C72.315 175.928 71.1338 176.052 70.0875 175.614C68.625 174.996 68.1075 173.366 68.58 170.096C69.1049 167.313 70.1713 164.66 71.7188 162.286C72.6188 160.927 71.01 159.589 72.3375 157.556C77.895 149.768 91.4625 127.215 108.743 110.584" stroke="black" stroke-width="0.57" stroke-linecap="round" stroke-linejoin="round"/>
<path d="M74.0925 168.692C74.9475 166.601 78.4575 161.522 79.38 162.983C79.8075 163.567 79.2788 167.478 79.0875 168.456C78.7838 169.995 78.03 171.624 77.9625 172.501C77.7038 175.49 82.5975 174.119 84.3075 172.254C87.6038 168.658 86.4225 164.039 86.5575 163.41C86.9288 161.275 89.19 158.41 90.495 156.275C99.2138 142.003 107.561 133.991 118.463 121.439" stroke="black" stroke-width="0.57" stroke-linecap="round" stroke-linejoin="round"/>
<path fill-rule="evenodd" clip-rule="evenodd" d="M77.2876 163.23C74.8126 165.68 71.0888 174.524 72.9001 177.625C73.7776 179.142 75.8926 179.49 76.5676 178.749C78.2101 176.917 77.3776 175.748 78.4913 172.411C79.4812 169.513 80.9365 166.796 82.8001 164.365C84.3076 162.522 82.4738 159.668 78.5363 162.275C78.0791 162.536 77.6591 162.858 77.2876 163.23Z" fill="#27C799"/>
<path d="M77.2876 163.23C74.8126 165.68 71.0888 174.524 72.9001 177.625C73.7776 179.142 75.8926 179.49 76.5676 178.749C78.2101 176.917 77.3776 175.748 78.4913 172.411C79.4812 169.513 80.9365 166.796 82.8001 164.365C84.3076 162.522 82.4738 159.668 78.5363 162.275C78.0791 162.536 77.6591 162.858 77.2876 163.23Z" stroke="black" stroke-width="0.57" stroke-miterlimit="22.93" stroke-linecap="round"/>
<path d="M74.6438 154.353C74.4525 154.937 68.8163 160.601 66.6 165.534C65.3625 168.287 65.0813 172.568 67.9613 172.613" stroke="black" stroke-width="0.57" stroke-miterlimit="22.93" stroke-linecap="round"/>
<path fill-rule="evenodd" clip-rule="evenodd" d="M82.9688 157.241C83.9898 157.874 84.7234 158.879 85.0134 160.044C85.3033 161.209 85.1268 162.441 84.5213 163.478C84.2753 164.012 83.9247 164.491 83.4903 164.888C83.0558 165.285 82.5462 165.59 81.9916 165.787C81.437 165.984 80.8485 166.068 80.2608 166.034C79.6732 166 79.0983 165.849 78.57 165.59C77.5512 164.955 76.8195 163.95 76.5297 162.786C76.24 161.622 76.4149 160.391 77.0175 159.354C77.2647 158.82 77.6159 158.342 78.0506 157.946C78.4852 157.55 78.9946 157.245 79.5488 157.048C80.103 156.852 80.691 156.767 81.2782 156.8C81.8655 156.833 82.4402 156.983 82.9688 157.241Z" fill="#27C799"/>
<path fill-rule="evenodd" clip-rule="evenodd" d="M76.005 154.331C76.815 154.769 75.7687 163.691 72.7087 162.376C69.6487 161.062 68.85 166.703 68.0512 166.253C67.2525 165.804 68.4787 163.107 69.12 161.893C69.7612 160.68 75.2062 153.892 76.005 154.331Z" fill="#27C799"/>
<path d="M81.5512 166.309C82.0462 165.466 82.9125 165.579 82.3275 166.961C81.8061 168.147 80.898 169.121 79.7512 169.725" stroke="black" stroke-width="0.57" stroke-miterlimit="22.93" stroke-linecap="round"/>
<path d="M129.96 88.7732C130.399 89.8295 131.625 89.9643 132.637 89.9643" stroke="#373435" stroke-width="0.57" stroke-miterlimit="22.93" stroke-linecap="round"/>
<path d="M176.321 99.1675C172.946 99.5721 172.058 104.28 176.456 104.078C178.178 103.999 180.405 103.808 180.259 103.842C179.719 103.966 172.89 104.325 174.926 107.337C176.209 109.236 181.553 108.461 181.373 108.461C180.226 108.571 179.107 108.879 178.065 109.371C174.904 110.629 175.714 113.293 178.808 113.562C179.595 113.63 180.731 113.652 181.553 113.652" stroke="black" stroke-width="0.57" stroke-miterlimit="22.93" stroke-linecap="round"/>
</svg>
